<svg class="icon" viewBox="0 0 1024 1024" xmlns="http://www.w3.org/2000/svg" width="200" height="200"><defs><style/></defs><path d="M72.533 789.333C34.133 789.333 0 823.467 0 861.867S34.133 934.4 72.533 934.4s72.534-34.133 72.534-72.533-34.134-72.534-72.534-72.534zm0-349.866C34.133 439.467 0 473.6 0 512s34.133 72.533 72.533 72.533S145.067 550.4 145.067 512s-34.134-72.533-72.534-72.533zM337.067 230.4h618.666c38.4 0 68.267-29.867 68.267-64 0-38.4-29.867-68.267-68.267-68.267H337.067c-38.4 0-68.267 29.867-68.267 68.267 0 34.133 29.867 64 68.267 64zM72.533 89.6C34.133 89.6 0 123.733 0 162.133s34.133 72.534 72.533 72.534 72.534-34.134 72.534-72.534S110.933 89.6 72.533 89.6zm883.2 354.133H337.067c-38.4 0-68.267 29.867-68.267 68.267s29.867 68.267 68.267 68.267h618.666c38.4 0 68.267-29.867 68.267-68.267 0-34.133-29.867-68.267-68.267-68.267zm0 349.867H337.067c-38.4 0-68.267 29.867-68.267 68.267s29.867 68.266 68.267 68.266h618.666c38.4 0 68.267-29.866 68.267-68.266S994.133 793.6 955.733 793.6z"/></svg>