<svg class="icon" viewBox="0 0 1024 1024" xmlns="http://www.w3.org/2000/svg" width="200" height="200"><defs><style/></defs><path d="M916 813h-16.9V542.2c0-37.3-30.4-67.7-67.7-67.7H662.2V237.7c0-37.3-30.4-67.7-67.7-67.7H188.4c-37.3 0-67.7 30.4-67.7 67.7V813h-16.9C85.1 813 70 828.1 70 846.8c0 18.7 15.1 33.8 33.8 33.8H916c18.7 0 33.8-15.1 33.8-33.8 0-18.7-15.1-33.8-33.8-33.8zm-321.5 0H188.4V237.7h406.1V813zm236.9 0H662.2V542.2h169.2V813z"/><path d="M289.9 339.2V390h101.5v-50.8H289.9zm0-33.8h101.5c18.7 0 33.8 15.1 33.8 33.8V390c0 18.7-15.1 33.8-33.8 33.8H289.9c-18.7 0-33.8-15.1-33.8-33.8v-50.8c0-18.7 15.1-33.8 33.8-33.8zm101.6 169.2H289.9c-18.7 0-33.8 15.1-33.8 33.8v50.8c0 18.7 15.1 33.8 33.8 33.8h101.5c18.7 0 33.8-15.1 33.8-33.8v-50.8c.1-18.7-15-33.8-33.7-33.8zm0 84.6H289.9v-50.8h101.5v50.8zm0 84.6H289.9c-18.7 0-33.8 15.1-33.8 33.8v50.8c0 18.7 15.1 33.8 33.8 33.8h101.5c18.7 0 33.8-15.1 33.8-33.8v-50.8c.1-18.7-15-33.8-33.7-33.8zm0 84.6H289.9v-50.8h101.5v50.8z"/></svg>